<svg xmlns="http://www.w3.org/2000/svg" width="34.4" height="32.667" viewBox="0 0 34.4 32.667"><defs><style>.a{fill:#3574f3;}</style></defs><g transform="translate(0 0.011)"><path class="a" d="M126.842,6.158h-2.2A.638.638,0,0,1,124,5.519V3.4c0-2.688,1.532-3.333,2.822-3.406a.41.41,0,0,1,.3.108.4.4,0,0,1,.128.3V1.609a.4.4,0,0,1-.37.4c-.208.02-.665.06-.779.887h.739a.638.638,0,0,1,.638.638V5.506A.637.637,0,0,1,126.842,6.158Z" transform="translate(-115.669)"/><path class="a" d="M188.842,6.158h-2.2A.638.638,0,0,1,186,5.519V3.4c0-2.688,1.532-3.333,2.822-3.406a.41.41,0,0,1,.3.108.4.4,0,0,1,.128.3V1.609a.4.4,0,0,1-.37.4c-.208.02-.665.06-.779.887h.739a.638.638,0,0,1,.638.638V5.506A.641.641,0,0,1,188.842,6.158Z" transform="translate(-173.503)"/><path class="a" d="M24.785,81.266a.676.676,0,0,1-.477-.195l-5.086-5.086H11.939A11.951,11.951,0,0,1,1.5,58.241a.672.672,0,0,1,1.176.652,10.6,10.6,0,0,0,9.265,15.742H19.5a.694.694,0,0,1,.477.195l4.139,4.139v-3.9a.675.675,0,0,1,.531-.658,10.595,10.595,0,0,0-2.184-20.963h-.847a.672.672,0,1,1,0-1.344h.847a11.939,11.939,0,0,1,3,23.5v4.992a.663.663,0,0,1-.417.618A.57.57,0,0,1,24.785,81.266Z" transform="translate(0 -48.61)"/><path class="a" d="M140.113,153.044H123.572a.672.672,0,1,1,0-1.344h16.535a.672.672,0,0,1,.007,1.344Z" transform="translate(-114.643 -141.518)"/><path class="a" d="M140.113,206.344H123.572a.672.672,0,1,1,0-1.344h16.535a.672.672,0,0,1,.007,1.344Z" transform="translate(-114.643 -191.237)"/><path class="a" d="M140.113,259.644H123.572a.672.672,0,0,1,0-1.344h16.535a.672.672,0,0,1,.007,1.344Z" transform="translate(-114.643 -240.956)"/><path class="a" d="M247.387,313.044h-8.815a.672.672,0,0,1,0-1.344h8.815a.672.672,0,0,1,0,1.344Z" transform="translate(-221.916 -290.768)"/></g></svg>