<svg xmlns="http://www.w3.org/2000/svg" width="152.486" height="144.654" viewBox="0 0 152.486 144.654"><defs><style>.a{opacity:0.04;}</style></defs><g class="a" transform="translate(-1226.405 -619.55)"><g transform="translate(1226.405 619.55)"><path d="M157.574,127H64.415a4.047,4.047,0,1,0,0,8.06h93.159a4.047,4.047,0,1,0,0-8.06Z" transform="translate(-35.82 -72.448)"/><path d="M64.417,79.06h92.753a4.047,4.047,0,1,0,0-8.06H64.417a4.047,4.047,0,1,0,0,8.06Z" transform="translate(-35.82 -40.503)"/><path d="M122.485,0H29.958A29.991,29.991,0,0,0,0,29.958V95.865a29.991,29.991,0,0,0,29.958,29.958H55.593l17.59,17.59a4.309,4.309,0,0,0,3.039,1.241,3.589,3.589,0,0,0,1.626-.342,4.29,4.29,0,0,0,2.653-3.937V125.823h41.941A29.991,29.991,0,0,0,152.4,95.865h.086V29.958A30.055,30.055,0,0,0,122.485,0Zm21.4,65.565a4.717,4.717,0,0,0-.086.77v29.53a21.406,21.406,0,0,1-21.4,21.4H76.179a4.292,4.292,0,0,0-4.28,4.28v8.517L61.713,119.832a4.3,4.3,0,0,0-3.937-2.568H29.958a21.406,21.406,0,0,1-21.4-21.4V29.958a21.406,21.406,0,0,1,21.4-21.4h92.527a21.406,21.406,0,0,1,21.4,21.4Z"/><g transform="translate(41.862 76.774)"><path d="M126,202.892a35.746,35.746,0,0,1-32.4-20.8,3.616,3.616,0,1,1,6.569-3.023,28.363,28.363,0,0,0,51.585,0,3.615,3.615,0,1,1,6.569,3.023A35.543,35.543,0,0,1,126,202.892Z" transform="translate(-93.264 -176.964)"/></g></g></g></svg>