<svg xmlns="http://www.w3.org/2000/svg" xmlns:xlink="http://www.w3.org/1999/xlink" width="136.114" height="129.813" viewBox="0 0 136.114 129.813"><defs><style>.a{fill:#e6eeff;}.b{fill:#3574f3;}.c{fill:#fff;}.d{fill:#b4cdff;}.e,.g{fill:#f7634b;}.e{opacity:0.6;}.f{opacity:0.3;}.h{fill:#95efc6;}.i{fill:#f8fffb;}.j{fill:url(#a);}.k{fill:url(#b);}.l{fill:url(#c);}.m{fill:#ea8f68;}.n{fill:url(#d);}.o{fill:url(#e);}.p{fill:url(#f);}.q{fill:url(#g);}.r{fill:url(#h);}.s{fill:url(#i);}.t{fill:#ffaf84;}.u{fill:url(#j);}.v{fill:url(#k);}.w{fill:url(#l);}.x{fill:url(#m);}.y{fill:url(#n);}.z{fill:url(#o);}</style><linearGradient id="a" x1="2.662" y1="1.304" x2="-0.079" y2="0.315" gradientUnits="objectBoundingBox"><stop offset="0" stop-color="#2c27ce"/><stop offset="0.649" stop-color="#ef1d68"/><stop offset="1" stop-color="#efba92"/></linearGradient><linearGradient id="b" x1="-3.231" y1="13.953" x2="-3.803" y2="15.746" gradientUnits="objectBoundingBox"><stop offset="0" stop-color="#f70f47"/><stop offset="1" stop-color="#9e005d"/></linearGradient><linearGradient id="c" x1="0.245" y1="26.563" x2="-0.464" y2="33.546" xlink:href="#b"/><linearGradient id="d" x1="0.447" y1="0.19" x2="0.634" y2="1.104" xlink:href="#b"/><linearGradient id="e" x1="0.729" y1="-0.561" x2="-0.058" y2="3.33" gradientUnits="objectBoundingBox"><stop offset="0" stop-color="#36078b"/><stop offset="1" stop-color="#168d68"/></linearGradient><linearGradient id="f" x1="1.15" y1="-2.283" x2="-0.133" y2="-0.925" xlink:href="#e"/><linearGradient id="g" x1="1.166" y1="-0.212" x2="-0.109" y2="0.959" xlink:href="#e"/><linearGradient id="h" x1="2.854" y1="-0.88" x2="0.689" y2="0.385" gradientUnits="objectBoundingBox"><stop offset="0" stop-color="#36078b"/><stop offset="0.409" stop-color="#293e7d"/><stop offset="1" stop-color="#168d68"/></linearGradient><linearGradient id="i" x1="1.27" y1="-0.105" x2="-0.096" y2="1.071" xlink:href="#e"/><linearGradient id="j" x1="0.353" y1="4.426" x2="0.539" y2="-0.439" xlink:href="#a"/><linearGradient id="k" x1="0.304" y1="4.512" x2="0.56" y2="-0.463" xlink:href="#a"/><linearGradient id="l" x1="1.726" y1="2.416" x2="0.239" y2="0.204" xlink:href="#a"/><linearGradient id="m" x1="3.553" y1="3.067" x2="-0.378" y2="-0.352" xlink:href="#a"/><linearGradient id="n" x1="9.691" y1="-2.857" x2="8.313" y2="-1.367" xlink:href="#b"/><linearGradient id="o" x1="-5.952" y1="-9.497" x2="-7.036" y2="-8.091" xlink:href="#b"/></defs><g transform="translate(-0.011 0.023)"><g transform="translate(35.466 26.993)"><rect class="a" width="79.928" height="79.928" transform="translate(4.411)"/><g transform="translate(0 7.499)"><path class="b" d="M0,0H77.987V14.556H0Z"/><rect class="c" width="10.41" height="10.41" transform="translate(65.283 2.117)"/><rect class="c" width="22.408" height="2.029" transform="translate(5.029 2.735)"/><rect class="c" width="22.408" height="2.029" transform="translate(5.029 6.264)"/><rect class="c" width="15.086" height="2.029" transform="translate(5.029 9.881)"/></g><g transform="translate(16.762 67.665)"><path class="d" d="M0,0H44.816V21H0Z"/><rect class="c" width="22.849" height="2.294" transform="translate(5.823 3.176)"/><rect class="c" width="17.468" height="2.294" transform="translate(5.823 7.234)"/><rect class="c" width="11.733" height="2.294" transform="translate(5.823 11.38)"/><rect class="c" width="6.969" height="2.294" transform="translate(18.967 11.38)"/><rect class="c" width="15.88" height="2.294" transform="translate(5.823 15.439)"/></g><g transform="translate(62.636 26.466)"><rect class="d" width="38.023" height="38.023"/><path class="c" d="M244.539,147.078l-4.968-2.178h-3.21a3.707,3.707,0,1,1-7.414,0h-3.21l-4.968,2.178a.572.572,0,0,0-.306.688l1.338,3.745a.575.575,0,0,0,.688.344l3.21-1.032v13.414a.522.522,0,0,0,.535.535h12.726a.522.522,0,0,0,.535-.535V150.824l3.21,1.032a.6.6,0,0,0,.688-.344l1.338-3.745A.436.436,0,0,0,244.539,147.078Z" transform="translate(-213.618 -135.671)"/><rect class="d" width="7.023" height="7.023" transform="translate(15.821 17)"/></g><rect class="e" width="25.143" height="11.116" transform="translate(43.14 18.35)"/><rect class="e" width="25.143" height="11.116" transform="translate(27.878 46.757)"/><rect class="e" width="25.143" height="11.116" transform="translate(35.465 32.553)"/><g class="f" transform="translate(38.673 33.723)"><rect class="g" width="20.291" height="0.618" transform="translate(0.25 0.049) rotate(23.928)"/><rect class="g" width="0.618" height="20.291" transform="translate(18.554) rotate(66.116)"/></g><path class="g" d="M85.47,47.6c-10.763.353-21.879,4.5-29.024,12.792-4.94,5.734-9.7,18.173-.088,21.879,1.588.618,2.294-1.941.706-2.558-6.175-2.382-3.352-10.5-.882-14.556a28.908,28.908,0,0,1,7.675-8.028,38.011,38.011,0,0,1,21.438-6.881c1.853,0,1.853-2.647.176-2.647Z" transform="translate(-41.449 -32.603)"/><path class="g" d="M59.159,79.5c.794.882,1.5,1.764,2.294,2.647.618.706,1.853,1.676,2.029,2.558.088-.441.265-.882.353-1.323a28.52,28.52,0,0,1-3.617,1.941c-1.235.706-2.47,1.323-3.705,2.029-1.5.794-.176,3.088,1.323,2.294,1.853-.97,3.617-1.941,5.47-2.911.97-.529,2.647-.97,2.823-2.206.176-1.059-.794-1.941-1.412-2.647-1.147-1.412-2.382-2.823-3.617-4.235-1.147-1.235-3,.618-1.941,1.853Z" transform="translate(-42.044 -36.094)"/><path class="g" d="M117.88,120.67c5.911,1.412,14.909-1.853,16.409-8.293a1.327,1.327,0,0,0-2.558-.706c-1.147,4.94-8.646,7.587-13.145,6.44a1.33,1.33,0,0,0-.706,2.558Z" transform="translate(-49.245 -40.037)"/><path class="g" d="M129.087,112.072c2.206-1.764,4.411-3.617,6.7-5.293a14.1,14.1,0,0,0-1.853-.441,39.672,39.672,0,0,1,3.441,5.911c.794,1.5,3.088.176,2.294-1.323a49.167,49.167,0,0,0-3.441-5.911,1.369,1.369,0,0,0-1.853-.441c-2.47,1.764-4.852,3.793-7.234,5.734-1.235.97.618,2.823,1.941,1.764Z" transform="translate(-50.394 -39.29)"/><g transform="translate(55.049 85.309)"><rect class="h" width="14.645" height="14.645" transform="translate(0 0)"/><path class="i" d="M110.653,135.652h0A1.809,1.809,0,0,1,108.8,133.8v-1.147a1.809,1.809,0,0,1,1.853-1.853h0a1.809,1.809,0,0,1,1.853,1.853V133.8A1.809,1.809,0,0,1,110.653,135.652Z" transform="translate(-103.33 -127.712)"/><path class="i" d="M110.351,135.2a4.4,4.4,0,0,0-3.97,2.558,1.263,1.263,0,0,0,1.147,1.853h5.558a1.263,1.263,0,0,0,1.147-1.853A4.177,4.177,0,0,0,110.351,135.2Z" transform="translate(-103.028 -128.231)"/></g></g><path class="j" d="M13.683,5.114C14.918,3.35,13.506.262,9.977,0,5.919-.267-1.138,2.026,2.655,11.378c3.97,9.7,2.735,12.174.088,13.674,0,0,9.175.706,8.469-7.322S10.771,9.172,13.683,5.114Z" transform="translate(-0.184 0)"/><path class="k" d="M36.019,42.634c-1.323-.441-4.146-1.764-9.792-6.175a50.735,50.735,0,0,1-5.646-4.852c-1.676-1.588-.706-3.352.529-3.617A7.73,7.73,0,0,1,26.668,29.4c5.293,4.587,9.087,8.2,10.586,9.175C39.46,39.987,37.607,43.163,36.019,42.634Z" transform="translate(-2.318 -3.29)"/><path class="l" d="M53.716,44.1c-.794.706-1.676-.176-4.94.176a31.113,31.113,0,0,1-9.528,0c-2.294-.353-2.735-3.705,0-3.882,2.382-.088,12.616,1.676,14.115,1.588C54.333,41.988,54.333,43.576,53.716,44.1Z" transform="translate(-4.399 -4.761)"/><path class="m" d="M13.653,19c0,.176-.353,4.411-.353,7.675,0,1.588,1.147,3.088,2.294,3.176h.088a2.852,2.852,0,0,0,2.382-3,37.463,37.463,0,0,1,0-5.823Z" transform="translate(-1.565 -2.241)"/><path class="n" d="M9.661,38.145a61.987,61.987,0,0,1,2.029,8.91,24.381,24.381,0,0,1,0,6.7c-.176,1.323-.441,2.647-.706,3.97-.088.529-1.059,4.5-1.147,4.94h18.35c-.176-3.617-4.235-14.909-1.5-22.232,1.941-5.117-.618-5.205-2.382-9.44a12.521,12.521,0,0,0-1.5-3.088,5.331,5.331,0,0,0-2.823-1.764,11.031,11.031,0,0,0-1.676-.265c-3.088-.088-10.41-.97-11.116,3.441a8.455,8.455,0,0,0,.353,3.617c.441,1.323,1.059,2.47,1.5,3.793A6.829,6.829,0,0,1,9.661,38.145Z" transform="translate(-0.838 -3.036)"/><path class="o" d="M10.1,79.345s-1.588-3.97-.088-11.645H28.452s.618,5.47.706,11.645Z" transform="translate(-1.102 -7.978)"/><g transform="translate(0.429 60.535)"><path class="p" d="M12.32,109.3c2.382-5.911-3.441-7.94-6.087-3.793C2.527,111.331.939,133.033.5,137c-.088.529.265.441.529.441.882-.176.529-1.059,1.853-.97.706,0,.882.97.882.97C5.174,132.151,10.026,115.036,12.32,109.3Z" transform="translate(-0.484 -72.709)"/><path class="q" d="M18.88,80.336C19.5,72.661,16.586,66.662,12,69.22c-1.941,1.059-2.647,3.176-2.911,5.205S7.411,97.451,6.882,101.244c-1.147,8.557,5.381,6.264,6.087,3.882C14.734,99.038,18.527,84.482,18.88,80.336Z" transform="translate(-1.222 -68.621)"/></g><path class="r" d="M31.941,108.109c.265-5.823-5.2-5.646-6.528-.97-2.117,7.411,1.588,23.29,1.764,32.377.97-1.588,1.853-1.941,2.294-1.941a1.577,1.577,0,0,1,1.059.618C30.353,126.282,31.677,114.372,31.941,108.109Z" transform="translate(-2.916 -12.216)"/><path class="s" d="M25.022,104.673c.706,2.382,6.969,5.117,6.264-3.529-.265-3.793-1.059-24.878-1.235-26.907s-.529-5.029-1.5-5.381c-4.94-1.853-9.7,4.235-8.381,11.822C21.141,85.794,23.522,99.732,25.022,104.673Z" transform="translate(-2.348 -8.074)"/><path class="t" d="M11.185,14.287c.353,3.617.441,4.411,2.029,5.911A8.6,8.6,0,0,0,18.772,22.4c1.853,0,3.264-1.941,3.617-3.529a25.754,25.754,0,0,0,.441-9.263A5.785,5.785,0,0,0,17.537,5.2C14.979,5.2,10.3,5.465,11.185,14.287Z" transform="translate(-1.303 -0.615)"/><path class="u" d="M31.018,142.8a5.844,5.844,0,0,0,2.647,1.941c1.412.618,4.323.882,2.735,1.5a11.14,11.14,0,0,1-4.5.088,17.128,17.128,0,0,0-3.088-.176c-1.5,0-1.5-.088-1.323-1.764C27.754,141.92,30.313,141.479,31.018,142.8Z" transform="translate(-3.228 -16.738)"/><path class="v" d="M3.618,141.605c.176.441.441,2.382,1.853,3s4.323.882,2.735,1.5a11.14,11.14,0,0,1-4.5.088c-.97-.176-1.147-1.235-2.294-1.235-1.5,0-1.5-.088-1.323-1.764C.354,140.811,3,140.282,3.618,141.605Z" transform="translate(0 -16.6)"/><path class="w" d="M22.065,7.63c1.412,2.382-8.91,6.881-11.2,6.528s-2.294-5.293-.529-7.5C12.1,4.366,18.712,1.9,22.065,7.63Z" transform="translate(-1.067 -0.487)"/><path class="x" d="M19.389,7.122c.353,2.029,3.97,2.558,4.587,4.235.353,1.059.529-2.294-.265-3.793S18.684,2.976,19.389,7.122Z" transform="translate(-2.273 -0.597)"/><ellipse class="t" cx="1.323" cy="2.47" rx="1.323" ry="2.47" transform="translate(7.621 12.414) rotate(-22.215)"/><path class="y" d="M2,47.127c0-1.412.265-4.5,2.294-11.38a52.175,52.175,0,0,1,2.558-7.058c.97-2.117,2.911-1.853,3.529-.706A7.746,7.746,0,0,1,11,33.629c-2.47,6.528-4.5,11.38-4.852,13.145C5.617,49.332,2,48.715,2,47.127Z" transform="translate(-0.234 -3.196)"/><g transform="translate(1.634 41.974)"><g transform="translate(6.017 15.029)"><path class="t" d="M11.143,64.69A6.541,6.541,0,0,1,13.349,66.9c.353.706-1.059-.265-1.853-.618C10.791,65.925,10.349,64.249,11.143,64.69Z" transform="translate(-8.912 -64.617)"/><path class="t" d="M11.255,65.863c1.059,2.029,1.941,2.911,1.853,4.058-.088,1.059-1.853.088-2.382-.529-.441-.618-2.294-2.911-2.029-3.793C9.049,64.716,10.549,64.363,11.255,65.863Z" transform="translate(-8.671 -64.643)"/></g><path class="z" d="M8.511,64.007c-.97-.441-.618-1.588-2.382-4.5a30.6,30.6,0,0,1-4.146-9c-.794-2.294,2.206-4.323,3.617-1.676,1.147,2.206,4.058,12.616,4.764,13.939C10.8,63.654,9.3,64.36,8.511,64.007Z" transform="translate(-1.851 -47.581)"/></g><g transform="translate(48.257 36.156)"><path class="t" d="M55.372,41.881a6.067,6.067,0,0,1,3-.882c.794.088-.706.882-1.412,1.323S54.578,42.322,55.372,41.881Z" transform="translate(-54.753 -40.987)"/><path class="t" d="M56.464,42.3c2.294.088,3.441-.265,4.411.265s-.794,1.676-1.588,1.853c-.794.088-3.617.618-4.323,0C54.347,43.707,54.788,42.207,56.464,42.3Z" transform="translate(-54.699 -41.137)"/></g></g></svg>