<svg xmlns="http://www.w3.org/2000/svg" width="145.395" height="128.906" viewBox="0 0 145.395 128.906"><defs><style>.a{fill:#d3e6ff;}.b,.e,.k{fill:#fff;}.b{stroke:#4ba6c9;}.b,.h,.i,.j,.k{stroke-miterlimit:10;}.b,.k{stroke-width:0.949px;}.c{fill:#e6eeff;}.d{fill:#3574f3;}.f{fill:#fb8652;}.g{fill:#b4cdff;}.h,.i,.j{fill:none;}.h,.i,.j,.k{stroke:#3574f3;}.i{stroke-dasharray:3.987 3.987;}.j{stroke-dasharray:3.891 3.891;}</style></defs><g transform="translate(-0.023 0.005)"><path class="a" d="M282.29,32.481H222.826s-4.2-15.439,9.592-15.707c0,0,2.866-17.732,19.834-16.739,19.3,1.108,17.732,16.815,17.732,16.815S285.386,18.111,282.29,32.481Z" transform="translate(-137.283)"/><path class="a" d="M226.162,27.386H190.926s-2.484-9.134,5.694-9.287c0,0,1.682-10.509,11.771-9.936,11.427.65,10.509,9.974,10.509,9.974S227.958,18.864,226.162,27.386Z" transform="translate(-117.728 -5.033)"/><path class="a" d="M60.09,90.981H.626s-4.2-15.439,9.592-15.707c0,0,2.866-17.732,19.834-16.739,19.3,1.108,17.732,16.815,17.732,16.815S63.147,76.611,60.09,90.981Z" transform="translate(0 -36.143)"/><path class="b" d="M223.108,218.1c0,.229-1.108,10.166-1.108,10.166l3.134-.994,2.255,5.236,2.981-1.223-2.1-4.968,2.866-1.338Z" transform="translate(-137.146 -134.754)"/><g transform="translate(29.708 20.557)"><path class="c" d="M77.7,85v92.292a4.11,4.11,0,0,0,4.127,4.127h93.324a4.11,4.11,0,0,0,4.127-4.127V85Z" transform="translate(-77.7 -73.077)"/><path class="d" d="M175.151,53.8H81.827A4.11,4.11,0,0,0,77.7,57.927v7.8H179.279v-7.8A4.086,4.086,0,0,0,175.151,53.8Z" transform="translate(-77.7 -53.8)"/></g><circle class="e" cx="2.904" cy="2.904" r="2.904" transform="translate(33.3 23.614)"/><circle class="e" cx="2.904" cy="2.904" r="2.904" transform="translate(41.823 23.614)"/><circle class="e" cx="2.904" cy="2.904" r="2.904" transform="translate(50.307 23.614)"/><path class="e" d="M166.264,103.287H92.278A3.49,3.49,0,0,1,88.8,99.81V98.778A3.49,3.49,0,0,1,92.278,95.3h73.987a3.49,3.49,0,0,1,3.478,3.478V99.81A3.49,3.49,0,0,1,166.264,103.287Z" transform="translate(-54.85 -58.883)"/><path class="f" d="M314.532,101.634,313,99.494a3.272,3.272,0,1,0-2.217.879,3,3,0,0,0,1.338-.306l1.567,2.178Zm-6-4.548a2.255,2.255,0,1,1,2.255,2.255A2.284,2.284,0,0,1,308.532,97.087Z" transform="translate(-189.971 -57.956)"/><path class="g" d="M112.77,154.993H94.923A1.231,1.231,0,0,1,93.7,153.77V135.923a1.231,1.231,0,0,1,1.223-1.223H112.77a1.231,1.231,0,0,1,1.223,1.223V153.77A1.257,1.257,0,0,1,112.77,154.993Z" transform="translate(-57.877 -83.226)"/><path class="g" d="M112.77,219.193H94.923A1.231,1.231,0,0,1,93.7,217.97V200.123a1.231,1.231,0,0,1,1.223-1.223H112.77a1.231,1.231,0,0,1,1.223,1.223V217.97A1.231,1.231,0,0,1,112.77,219.193Z" transform="translate(-57.877 -122.891)"/><path class="g" d="M113.032,283.493H95.223A1.231,1.231,0,0,1,94,282.27V264.423a1.231,1.231,0,0,1,1.223-1.223H113.07a1.231,1.231,0,0,1,1.223,1.223V282.27A1.24,1.24,0,0,1,113.032,283.493Z" transform="translate(-58.063 -162.618)"/><path class="g" d="M189.749,150.717h-31.49a.465.465,0,0,1-.459-.459h0a.465.465,0,0,1,.459-.459h31.49a.465.465,0,0,1,.459.459h0A.441.441,0,0,1,189.749,150.717Z" transform="translate(-97.481 -92.555)"/><path class="g" d="M189.749,170.417h-31.49a.465.465,0,0,1-.459-.459h0a.465.465,0,0,1,.459-.459h31.49a.465.465,0,0,1,.459.459h0A.441.441,0,0,1,189.749,170.417Z" transform="translate(-97.481 -104.727)"/><path class="g" d="M189.749,160.517h-31.49a.465.465,0,0,1-.459-.459h0a.465.465,0,0,1,.459-.459h31.49a.465.465,0,0,1,.459.459h0A.422.422,0,0,1,189.749,160.517Z" transform="translate(-97.481 -98.61)"/><path class="g" d="M189.749,215.317h-31.49a.465.465,0,0,1-.459-.459h0a.465.465,0,0,1,.459-.459h31.49a.465.465,0,0,1,.459.459h0A.422.422,0,0,1,189.749,215.317Z" transform="translate(-97.481 -132.468)"/><path class="g" d="M189.749,235.117h-31.49a.465.465,0,0,1-.459-.459h0a.465.465,0,0,1,.459-.459h31.49a.465.465,0,0,1,.459.459h0A.441.441,0,0,1,189.749,235.117Z" transform="translate(-97.481 -144.701)"/><path class="g" d="M189.749,225.217h-31.49a.465.465,0,0,1-.459-.459h0a.465.465,0,0,1,.459-.459h31.49a.465.465,0,0,1,.459.459h0A.441.441,0,0,1,189.749,225.217Z" transform="translate(-97.481 -138.584)"/><path class="g" d="M189.749,279.617h-31.49a.465.465,0,0,1-.459-.459h0a.465.465,0,0,1,.459-.459h31.49a.465.465,0,0,1,.459.459h0A.422.422,0,0,1,189.749,279.617Z" transform="translate(-97.481 -172.195)"/><path class="g" d="M189.749,299.317h-31.49a.465.465,0,0,1-.459-.459h0a.465.465,0,0,1,.459-.459h31.49a.465.465,0,0,1,.459.459h0A.422.422,0,0,1,189.749,299.317Z" transform="translate(-97.481 -184.366)"/><path class="g" d="M189.749,289.517h-31.49a.465.465,0,0,1-.459-.459h0a.465.465,0,0,1,.459-.459h31.49a.465.465,0,0,1,.459.459h0A.441.441,0,0,1,189.749,289.517Z" transform="translate(-97.481 -178.311)"/><g transform="translate(101.402 78.073)"><path class="g" d="M265.3,254.712a1.794,1.794,0,0,0,1.8,1.8h16.7a1.794,1.794,0,0,0,1.8-1.8V219.4H265.3Z" transform="translate(-265.3 -213.629)"/><path class="d" d="M283.835,204.3H267.1a1.794,1.794,0,0,0-1.8,1.8v3.974h20.293V206.1A1.738,1.738,0,0,0,283.835,204.3Z" transform="translate(-265.3 -204.3)"/><g transform="translate(2.14 9.516)"><path class="d" d="M286.607,230.155H271.244a.343.343,0,0,1-.344-.344v-.268a.343.343,0,0,1,.344-.344h15.363a.342.342,0,0,1,.344.344v.268A.342.342,0,0,1,286.607,230.155Z" transform="translate(-270.9 -229.2)"/><path class="d" d="M286.607,249.855H271.244a.343.343,0,0,1-.344-.344v-.268a.343.343,0,0,1,.344-.344h15.363a.342.342,0,0,1,.344.344v.268A.342.342,0,0,1,286.607,249.855Z" transform="translate(-270.9 -241.371)"/><path class="d" d="M286.607,240.055H271.244a.343.343,0,0,1-.344-.344v-.268a.343.343,0,0,1,.344-.344h15.363a.342.342,0,0,1,.344.344v.268A.342.342,0,0,1,286.607,240.055Z" transform="translate(-270.9 -235.317)"/><g transform="translate(0 11.58)"><path class="d" d="M286.607,260.455H271.244a.343.343,0,0,1-.344-.344v-.268a.343.343,0,0,1,.344-.344h15.363a.342.342,0,0,1,.344.344v.268A.342.342,0,0,1,286.607,260.455Z" transform="translate(-270.9 -259.5)"/><path class="d" d="M286.607,280.255H271.244a.343.343,0,0,1-.344-.344v-.268a.343.343,0,0,1,.344-.344h15.363a.342.342,0,0,1,.344.344v.268A.342.342,0,0,1,286.607,280.255Z" transform="translate(-270.9 -271.733)"/><path class="d" d="M286.607,270.355H271.244a.343.343,0,0,1-.344-.344v-.268a.343.343,0,0,1,.344-.344h15.363a.342.342,0,0,1,.344.344v.268A.343.343,0,0,1,286.607,270.355Z" transform="translate(-270.9 -265.617)"/></g></g></g><g transform="translate(33.912 49.678)"><path class="h" d="M151.126,190.3v.726H150.4" transform="translate(-126.821 -167.256)"/><line class="i" x1="20.56" transform="translate(1.49 23.771)"/><path class="h" d="M89.426,191.026H88.7V190.3" transform="translate(-88.7 -167.256)"/><line class="j" y1="20.102" transform="translate(0 1.452)"/><path class="h" d="M88.7,130.726V130h.726" transform="translate(-88.7 -130)"/><line class="i" x2="20.56" transform="translate(2.255)"/><path class="h" d="M150.4,130h.726v.726" transform="translate(-126.821 -130)"/><line class="j" y2="20.064" transform="translate(24.306 2.217)"/></g><rect class="k" width="3.707" height="3.707" transform="translate(56.383 47.843)"/><rect class="k" width="3.707" height="3.707" transform="translate(32.498 47.843)"/><rect class="k" width="3.707" height="3.707" transform="translate(32.498 71.576)"/><rect class="k" width="3.707" height="3.707" transform="translate(56.383 71.576)"/><path class="e" d="M240.788,161.137h-27.4a2,2,0,0,1-1.987-1.987V131.787a2,2,0,0,1,1.987-1.987h27.4a2,2,0,0,1,1.987,1.987v27.4A1.966,1.966,0,0,1,240.788,161.137Z" transform="translate(-130.597 -80.199)"/><path class="d" d="M244.539,147.078l-4.968-2.178h-3.21a3.707,3.707,0,1,1-7.414,0h-3.21l-4.968,2.178a.572.572,0,0,0-.306.688l1.338,3.745a.575.575,0,0,0,.688.344l3.21-1.032v13.414a.522.522,0,0,0,.535.535h12.726a.522.522,0,0,0,.535-.535V150.824l3.21,1.032a.6.6,0,0,0,.688-.344l1.338-3.745A.436.436,0,0,0,244.539,147.078Z" transform="translate(-136.181 -89.528)"/><path class="e" d="M116.213,213.308l-2.522-1.108h-1.643a1.873,1.873,0,1,1-3.745,0h-1.643l-2.522,1.108a.333.333,0,0,0-.153.344l.688,1.911a.232.232,0,0,0,.344.153l1.643-.535v6.879a.261.261,0,0,0,.268.268h6.5a.261.261,0,0,0,.268-.268v-6.841l1.643.535a.287.287,0,0,0,.344-.153l.688-1.911A.313.313,0,0,0,116.213,213.308Z" transform="translate(-64.225 -131.108)"/><path class="e" d="M116.513,277.608l-2.522-1.108h-1.643a1.873,1.873,0,1,1-3.745,0h-1.643l-2.522,1.108a.333.333,0,0,0-.153.344l.688,1.911a.232.232,0,0,0,.344.153l1.643-.535v6.841a.261.261,0,0,0,.268.268h6.5a.261.261,0,0,0,.268-.268v-6.841l1.643.535a.287.287,0,0,0,.344-.153l.688-1.911A.333.333,0,0,0,116.513,277.608Z" transform="translate(-64.41 -170.835)"/></g></svg>