<svg xmlns="http://www.w3.org/2000/svg" width="64" height="64" viewBox="0 0 64 64"><defs><style>.a{fill:#3574f3;}</style></defs><g transform="translate(-800 -7767)"><g transform="translate(800 7767)"><path class="a" d="M64,24.487A1.852,1.852,0,0,0,63.237,23L52.625,15.125V1.875A1.872,1.872,0,0,0,50.75,0H13.25a1.872,1.872,0,0,0-1.875,1.875V15.113L.762,23A1.932,1.932,0,0,0,0,24.5V62.125A1.872,1.872,0,0,0,1.875,64h60.25A1.872,1.872,0,0,0,64,62.125V24.487Zm-5.013.013-6.362,4.75V19.788ZM48.875,3.75v28.3C47.2,33.3,33.588,43.463,32,44.65c-.175-.138-3.837-2.862-16.875-12.6V3.75Zm-37.5,16.038V29.25L5.012,24.5ZM3.75,60.25V28.237l19.487,14.55L9.625,53a1.875,1.875,0,1,0,2.25,3L26.362,45.138l4.513,3.375a1.875,1.875,0,0,0,2.25,0l4.513-3.375L52.125,56a1.875,1.875,0,0,0,2.25-3L40.763,42.787,60.25,28.237V60.25Zm0,0"/><rect class="a" width="23" height="3.75" transform="translate(20.5 9.075)"/><rect class="a" width="23" height="3.75" transform="translate(20.5 17.563)"/><rect class="a" width="23" height="3.75" transform="translate(20.5 26.313)"/></g></g></svg>