<svg xmlns="http://www.w3.org/2000/svg" width="145.395" height="128.906" viewBox="0 0 145.395 128.906"><defs><style>.a{fill:#d3e6ff;}.b,.e{fill:#fff;}.b{stroke:#4ba6c9;stroke-miterlimit:10;stroke-width:0.949px;}.c{fill:#e6eeff;}.d{fill:#3574f3;}.f{fill:#b4cdff;}.g{fill:none;}</style></defs><g transform="translate(-0.023 0.005)"><path class="a" d="M282.29,32.481H222.826s-4.2-15.439,9.592-15.707c0,0,2.866-17.732,19.834-16.739,19.3,1.108,17.732,16.815,17.732,16.815S285.386,18.111,282.29,32.481Z" transform="translate(-137.283)"/><path class="a" d="M226.162,27.386H190.926s-2.484-9.134,5.694-9.287c0,0,1.682-10.509,11.771-9.936,11.427.65,10.509,9.974,10.509,9.974S227.958,18.864,226.162,27.386Z" transform="translate(-117.728 -5.033)"/><path class="a" d="M60.09,90.981H.626s-4.2-15.439,9.592-15.707c0,0,2.866-17.732,19.834-16.739,19.3,1.108,17.732,16.815,17.732,16.815S63.147,76.611,60.09,90.981Z" transform="translate(0 -36.143)"/><path class="b" d="M223.108,218.1c0,.229-1.108,10.166-1.108,10.166l3.134-.994,2.255,5.236,2.981-1.223-2.1-4.968,2.866-1.338Z" transform="translate(-137.146 -134.754)"/><g transform="translate(29.708 20.557)"><path class="c" d="M77.7,85v92.292a4.11,4.11,0,0,0,4.127,4.127h93.324a4.11,4.11,0,0,0,4.127-4.127V85Z" transform="translate(-77.7 -73.077)"/><path class="d" d="M175.151,53.8H81.827A4.11,4.11,0,0,0,77.7,57.927v7.8H179.279v-7.8A4.086,4.086,0,0,0,175.151,53.8Z" transform="translate(-77.7 -53.8)"/></g><circle class="e" cx="2.904" cy="2.904" r="2.904" transform="translate(33.3 23.614)"/><circle class="e" cx="2.904" cy="2.904" r="2.904" transform="translate(41.823 23.614)"/><circle class="e" cx="2.904" cy="2.904" r="2.904" transform="translate(50.307 23.614)"/><path class="e" d="M166.264,103.287H92.278A3.49,3.49,0,0,1,88.8,99.81V98.778A3.49,3.49,0,0,1,92.278,95.3h73.987a3.49,3.49,0,0,1,3.478,3.478V99.81A3.49,3.49,0,0,1,166.264,103.287Z" transform="translate(-54.85 -58.883)"/><path class="d" d="M314.532,101.634,313,99.494a3.272,3.272,0,1,0-2.217.879,3,3,0,0,0,1.338-.306l1.567,2.178Zm-6-4.548a2.255,2.255,0,1,1,2.255,2.255A2.284,2.284,0,0,1,308.532,97.087Z" transform="translate(-189.971 -57.956)"/><path class="e" d="M240.788,161.137h-27.4a2,2,0,0,1-1.987-1.987V131.787a2,2,0,0,1,1.987-1.987h27.4a2,2,0,0,1,1.987,1.987v27.4A1.966,1.966,0,0,1,240.788,161.137Z" transform="translate(-124.597 -80.199)"/><path class="e" d="M240.788,161.137h-27.4a2,2,0,0,1-1.987-1.987V131.787a2,2,0,0,1,1.987-1.987h27.4a2,2,0,0,1,1.987,1.987v27.4A1.966,1.966,0,0,1,240.788,161.137Z" transform="translate(-124.597 -39.199)"/><path class="e" d="M240.788,161.137h-27.4a2,2,0,0,1-1.987-1.987V131.787a2,2,0,0,1,1.987-1.987h27.4a2,2,0,0,1,1.987,1.987v27.4A1.966,1.966,0,0,1,240.788,161.137Z" transform="translate(-168.597 -80.199)"/><path class="e" d="M240.788,161.137h-27.4a2,2,0,0,1-1.987-1.987V131.787a2,2,0,0,1,1.987-1.987h27.4a2,2,0,0,1,1.987,1.987v27.4A1.966,1.966,0,0,1,240.788,161.137Z" transform="translate(-168.597 -39.199)"/><path class="f" d="M244.539,147.078l-4.968-2.178h-3.21a3.707,3.707,0,1,1-7.414,0h-3.21l-4.968,2.178a.572.572,0,0,0-.306.688l1.338,3.745a.575.575,0,0,0,.688.344l3.21-1.032v13.414a.522.522,0,0,0,.535.535h12.726a.522.522,0,0,0,.535-.535V150.824l3.21,1.032a.6.6,0,0,0,.688-.344l1.338-3.745A.436.436,0,0,0,244.539,147.078Z" transform="translate(-130.181 -48.528)"/><path class="f" d="M244.539,147.078l-4.968-2.178h-3.21a3.707,3.707,0,1,1-7.414,0h-3.21l-4.968,2.178a.572.572,0,0,0-.306.688l1.338,3.745a.575.575,0,0,0,.688.344l3.21-1.032v13.414a.522.522,0,0,0,.535.535h12.726a.522.522,0,0,0,.535-.535V150.824l3.21,1.032a.6.6,0,0,0,.688-.344l1.338-3.745A.436.436,0,0,0,244.539,147.078Z" transform="translate(-174.181 -89.528)"/><g transform="translate(94.302 51.248)"><path class="f" d="M1.051,11.662A1.042,1.042,0,0,0,0,12.713V23.9a3.734,3.734,0,0,0,3.771,3.71h8.037a3.739,3.739,0,0,0,3.71-3.215,5.051,5.051,0,0,0,4.575-5.07,5.138,5.138,0,0,0-4.513-5.07h0V12.651A1.042,1.042,0,0,0,14.529,11.6H1.051Zm5.07,11.747A1.042,1.042,0,0,1,5.07,24.46a1.083,1.083,0,0,1-1.051-1.051V15.371A1.042,1.042,0,0,1,5.07,14.32a1.083,1.083,0,0,1,1.051,1.051ZM16.2,22.3v-5.75a2.932,2.932,0,0,1,2.411,2.906A2.967,2.967,0,0,1,16.2,22.3Zm.618,0" transform="translate(0 -4.428)"/><path class="g" d="M20.341,0V23.494H0"/></g><path class="f" d="M1.051,11.662A1.042,1.042,0,0,0,0,12.713V23.9a3.734,3.734,0,0,0,3.771,3.71h8.037a3.739,3.739,0,0,0,3.71-3.215,5.051,5.051,0,0,0,4.575-5.07,5.138,5.138,0,0,0-4.513-5.07h0V12.651A1.042,1.042,0,0,0,14.529,11.6H1.051Zm5.07,11.747A1.042,1.042,0,0,1,5.07,24.46a1.083,1.083,0,0,1-1.051-1.051V15.371A1.042,1.042,0,0,1,5.07,14.32a1.083,1.083,0,0,1,1.051,1.051ZM16.2,22.3v-5.75a2.932,2.932,0,0,1,2.411,2.906A2.967,2.967,0,0,1,16.2,22.3Zm.618,0" transform="translate(50.302 86.82)"/></g></svg>