<svg xmlns="http://www.w3.org/2000/svg" xmlns:xlink="http://www.w3.org/1999/xlink" width="20" height="18.141" viewBox="0 0 20 18.141"><defs><style>.a{clip-path:url(#a);}</style><clipPath id="a"><rect width="20" height="18.141"/></clipPath></defs><g class="a"><path d="M.769,1.474H2.885L5.9,12.372a.7.7,0,0,0,.705.513H15.9a.788.788,0,0,0,.705-.449L20,4.679a.78.78,0,0,0-.769-.962H8.974a.769.769,0,1,0,0,1.538h9.1l-2.692,6.218H7.179L4.167.577A.806.806,0,0,0,3.4,0H.769A.741.741,0,0,0,0,.769a.728.728,0,0,0,.769.705Zm0,0"/></g><path d="M8.1,26.1a1.5,1.5,0,1,0-1.5-1.5,1.527,1.527,0,0,0,1.5,1.5Zm0,0" transform="translate(-0.843 -9.159)"/><path d="M24.388,26.079H24.5a1.779,1.779,0,0,0,1.032-.516,1.268,1.268,0,0,0,.344-1.09A1.488,1.488,0,0,0,24.274,23.1,1.523,1.523,0,0,0,22.9,24.7a1.543,1.543,0,0,0,1.491,1.376Zm0,0" transform="translate(-9.2 -9.159)"/></svg>