<svg xmlns="http://www.w3.org/2000/svg" width="20" height="20" viewBox="0 0 20 20"><defs><style>.a{fill-rule:evenodd;}</style></defs><path class="a" d="M17.3-7.913h-.908l-.316-.313a7.4,7.4,0,0,0,1.793-4.832,7.432,7.432,0,0,0-7.433-7.432A7.432,7.432,0,0,0,3-13.059a7.432,7.432,0,0,0,7.433,7.432,7.4,7.4,0,0,0,4.831-1.791l.316.313V-6.2L21.3-.491,23-2.2,17.3-7.913Zm-6.863,0a5.145,5.145,0,0,1-5.146-5.146A5.145,5.145,0,0,1,10.433-18.2a5.146,5.146,0,0,1,5.146,5.146,5.145,5.145,0,0,1-5.146,5.146Z" transform="translate(-3 20.491)"/></svg>